<svg width="80" height="80" viewBox="0 0 80 80" fill="none" xmlns="http://www.w3.org/2000/svg">
<path d="M71.6259 59.4814C70.2411 58.4512 68.2836 58.7389 67.2534 60.1234C66.6869 60.885 66.0806 61.632 65.4514 62.3437C64.3084 63.6367 64.4298 65.6117 65.7228 66.7548C66.3175 67.2805 67.0558 67.5386 67.7914 67.5386C68.6558 67.5386 69.5164 67.1819 70.1339 66.4833C70.879 65.6405 71.597 64.7558 72.268 63.8537C73.2981 62.4692 73.0108 60.5114 71.6259 59.4814Z" fill="#04F18C"/>
<path d="M76.8522 44.8259C75.1669 44.4589 73.5011 45.5284 73.1341 47.2147C72.932 48.1423 72.688 49.0717 72.4081 49.9773C71.8986 51.6264 72.8223 53.3761 74.4712 53.8856C74.7786 53.9805 75.0892 54.0256 75.3948 54.0256C76.7292 54.0256 77.9648 53.164 78.3795 51.8222C78.7117 50.7475 79.0014 49.6445 79.2411 48.5441C79.6081 46.8578 78.5386 45.1931 76.8522 44.8259Z" fill="#04F18C"/>
<path d="M56.5842 69.4897C55.7545 69.9529 54.8955 70.3857 54.0311 70.7762C52.4581 71.4865 51.7589 73.3374 52.4692 74.9104C52.9911 76.066 54.1284 76.7499 55.3191 76.7499C55.7491 76.7499 56.1861 76.6607 56.6034 76.4723C57.6289 76.0091 58.6473 75.4958 59.6311 74.9466C61.1381 74.1054 61.6777 72.2016 60.8361 70.6948C59.995 69.188 58.0912 68.6485 56.5842 69.4897Z" fill="#04F18C"/>
<path d="M36.875 15V38.7056L25.4158 50.1647C24.1955 51.3852 24.1955 53.3638 25.4158 54.5841C26.0261 55.1944 26.8256 55.4994 27.6256 55.4994C28.4253 55.4994 29.2252 55.1942 29.8355 54.5841L42.2098 42.2097C42.7958 41.6237 43.125 40.8288 43.125 40V15C43.125 13.2741 41.7259 11.875 40 11.875C38.2741 11.875 36.875 13.2741 36.875 15Z" fill="#04F18C"/>
<path d="M76.875 6.71875C75.1491 6.71875 73.75 8.11781 73.75 9.84375V18.5212C66.4762 7.11375 53.7736 0 40 0C29.3156 0 19.2708 4.16078 11.7156 11.7156C4.16078 19.2708 0 29.3156 0 40C0 50.6844 4.16078 60.7292 11.7156 68.2844C19.2708 75.8392 29.3156 80 40 80C40.0264 80 40.0519 79.9967 40.0781 79.9961C40.1044 79.9967 40.1298 80 40.1562 80C41.2825 80 42.4198 79.9525 43.537 79.8591C45.2569 79.715 46.5344 78.2041 46.3905 76.4842C46.2462 74.7644 44.7373 73.4863 43.0155 73.6309C42.0711 73.7098 41.1092 73.75 40.1562 73.75C40.1298 73.75 40.1044 73.7533 40.0781 73.7539C40.0519 73.7533 40.0264 73.75 40 73.75C21.3902 73.75 6.25 58.6098 6.25 40C6.25 21.3902 21.3902 6.25 40 6.25C51.9934 6.25 63.0245 12.6427 69.0525 22.8125H60.4598C58.7339 22.8125 57.3348 24.2116 57.3348 25.9375C57.3348 27.6634 58.7339 29.0625 60.4598 29.0625H70C71.9031 29.0625 73.6836 28.5277 75.1995 27.6011C75.297 27.5455 75.3908 27.4856 75.4802 27.4211C78.1998 25.6319 80 22.5542 80 19.0625V9.84375C80 8.11781 78.6009 6.71875 76.875 6.71875Z" fill="#04F18C"/>
</svg>
