<svg width="80" height="80" viewBox="0 0 80 80" fill="none" xmlns="http://www.w3.org/2000/svg">
<g clip-path="url(#clip0)">
<path d="M41.8133 31.7999V35.8221C41.8133 37.0996 42.0691 38.1714 42.572 39.0063C43.2666 40.1587 44.4067 40.8191 45.7013 40.8191C46.9696 40.8191 48.23 40.2014 49.4476 38.9844L62.7325 25.6995C65.6488 22.7826 65.6488 18.0365 62.7319 15.1196L49.4476 1.83472C48.23 0.617065 46.9696 0 45.7013 0C43.7665 0 41.8133 1.54541 41.8133 4.99695V8.6499C22.9523 9.76379 7.33825 24.2383 5.01769 43.1891C4.88769 44.2474 5.48949 45.2606 6.48131 45.6531C6.76208 45.7642 7.05443 45.8179 7.34313 45.8179C8.07433 45.8179 8.78356 45.4755 9.23522 44.8584C15.4596 36.3538 25.4535 31.2762 35.9686 31.2762C37.9175 31.2762 39.8761 31.452 41.8133 31.7999ZM11.7944 35.3418C16.8957 22.3132 29.5923 13.2684 44.1571 13.2684C45.4516 13.2684 46.5008 12.2192 46.5008 10.9247V5.51758L59.4177 18.4338C60.5066 19.5233 60.5066 21.2958 59.4177 22.3853L46.5008 35.3015V29.8938C46.5008 28.8074 45.7544 27.8632 44.6966 27.6129C41.8243 26.9336 38.8873 26.5887 35.9686 26.5887C29.9261 26.5887 23.9154 28.0511 18.5858 30.8185C16.1706 32.0721 13.8904 33.5944 11.7944 35.3418Z" fill="#04F18C"/>
<path d="M73.4778 34.347C72.486 33.9546 71.3538 34.2817 70.7239 35.1423C64.4995 43.6463 54.5062 48.7238 43.9905 48.7238C42.0422 48.7238 40.0836 48.5481 38.1458 48.2002V44.1779C38.1458 40.7264 36.1932 39.181 34.2578 39.181C32.9895 39.181 31.7291 39.7987 30.5121 41.0163L17.2272 54.3006C14.3103 57.2175 14.3103 61.9636 17.2272 64.8811L30.5121 78.1654C31.7291 79.383 32.9895 80.0001 34.2578 80.0001C36.1926 80.0001 38.1458 78.4547 38.1458 75.0031V71.3502C57.0074 70.2363 72.6208 55.7618 74.9414 36.8116C75.0714 35.7527 74.4696 34.7395 73.4778 34.347ZM35.802 66.7317C34.5074 66.7317 33.4583 67.7809 33.4583 69.0754V74.4825L20.542 61.5669C19.4525 60.4768 19.4525 58.7043 20.5414 57.6154L33.4583 44.6986V50.1063C33.4583 51.1933 34.2053 52.1375 35.2631 52.3878C38.136 53.0665 41.0724 53.4113 43.9905 53.4113C50.0336 53.4113 56.0443 51.9489 61.3733 49.1822C63.7884 47.9279 66.0687 46.4063 68.1647 44.6589C63.0634 57.6869 50.3668 66.7317 35.802 66.7317Z" fill="#04F18C"/>
</g>
<defs>
<clipPath id="clip0">
<rect width="80" height="80" fill="white"/>
</clipPath>
</defs>
</svg>
