<svg width="266" height="28" viewBox="0 0 266 28" fill="none" xmlns="http://www.w3.org/2000/svg">
<path d="M217.216 8.17505C218.945 8.17505 220.547 9.22786 220.547 11.2366C220.547 13.2454 218.945 14.2982 217.216 14.2982C215.499 14.2982 213.884 13.2454 213.884 11.2366C213.884 9.22786 215.499 8.17505 217.216 8.17505ZM217.216 9.36099C216.062 9.36099 215.268 10.0992 215.268 11.2367C215.268 12.3742 216.062 13.1124 217.216 13.1124C218.356 13.1124 219.15 12.3742 219.15 11.2367C219.15 10.0992 218.356 9.36099 217.216 9.36099Z" fill="#0CEA8C"/>
<path d="M225.236 8.17505C226.786 8.17505 227.773 9.16731 227.773 10.5469V14.1409H226.402V10.7163C226.402 9.77241 225.787 9.3247 224.967 9.3247C224.185 9.3247 223.596 9.82087 223.25 10.2928V14.1409H221.879V8.33237H223.096V9.13109C223.545 8.62283 224.301 8.17505 225.236 8.17505Z" fill="#0CEA8C"/>
<path d="M230.809 5.30713V14.1409H229.438V5.30713H230.809Z" fill="#0CEA8C"/>
<path d="M233.269 7.21906C232.82 7.21906 232.423 6.97699 232.423 6.44461C232.423 5.93628 232.82 5.68225 233.269 5.68225C233.717 5.68225 234.101 5.93635 234.101 6.44461C234.101 6.97706 233.717 7.21906 233.269 7.21906ZM232.577 14.1409V8.33236H233.948V14.1409H232.577Z" fill="#0CEA8C"/>
<path d="M239.047 8.17505C240.597 8.17505 241.584 9.16731 241.584 10.5469V14.1409H240.213V10.7163C240.213 9.77241 239.598 9.3247 238.778 9.3247C237.996 9.3247 237.407 9.82087 237.061 10.2928V14.1409H235.69V8.33237H236.907V9.13109C237.356 8.62283 238.112 8.17505 239.047 8.17505Z" fill="#0CEA8C"/>
<path d="M245.952 8.17505C248.399 8.17505 249.245 10.0387 248.848 11.7207H244.223C244.376 12.7614 245.452 13.197 246.58 13.197C247.323 13.197 248.002 13.0276 248.527 12.7856V13.8989C247.964 14.153 247.182 14.2982 246.324 14.2982C244.44 14.2982 242.839 13.2818 242.839 11.2367C242.839 9.13109 244.53 8.17505 245.952 8.17505ZM246.016 9.25213C245.094 9.25213 244.261 9.77241 244.21 10.7526H247.618C247.695 10.2444 247.362 9.25213 246.016 9.25213Z" fill="#0CEA8C"/>
<path d="M217.856 19.3719C219.701 19.3719 220.906 20.7636 220.906 22.4335C220.906 24.1034 219.701 25.4951 217.856 25.4951C216.78 25.4951 216.063 25.0474 215.64 24.5875V28H214.269V19.5293H215.486V20.4369C215.973 19.8802 216.703 19.3719 217.856 19.3719ZM217.6 20.5094C216.652 20.5094 215.935 21.0903 215.64 21.7196V23.1354C215.935 23.7767 216.652 24.3576 217.6 24.3576C218.715 24.3576 219.509 23.571 219.509 22.4335C219.509 21.2961 218.715 20.5094 217.6 20.5094Z" fill="#0CEA8C"/>
<path d="M223.634 16.504V25.3378H222.263V16.504H223.634Z" fill="#0CEA8C"/>
<path d="M231.065 24.4181C231.206 24.4181 231.347 24.3818 231.475 24.3456V25.2773C231.219 25.3742 230.911 25.4226 230.604 25.4226C230.04 25.4226 229.592 25.2169 229.374 24.745C228.772 25.2048 228.016 25.4951 227.055 25.4951C225.94 25.4951 224.902 24.9143 224.902 23.7163C224.902 22.2279 226.363 21.768 227.644 21.768C228.169 21.768 228.759 21.8406 229.246 21.9375V21.7318C229.246 21.0057 228.682 20.4975 227.631 20.4975C226.722 20.4975 225.966 20.7153 225.415 20.9453V19.7592C225.902 19.6019 226.786 19.3719 227.772 19.3719C229.515 19.3719 230.617 20.1585 230.617 21.9132V23.9946C230.617 24.3214 230.822 24.4181 231.065 24.4181ZM226.312 23.6316C226.312 24.2003 226.85 24.4908 227.465 24.4908C228.118 24.4908 228.759 24.2609 229.246 23.801V22.8208C228.874 22.7483 228.349 22.6756 227.913 22.6756C227.132 22.6755 226.312 22.9054 226.312 23.6316Z" fill="#0CEA8C"/>
<path d="M234.166 17.46V19.5294H236.395V20.6668H234.166V23.3291C234.166 24.0914 234.537 24.3456 235.331 24.3456C235.78 24.3456 236.19 24.2609 236.574 24.1157V25.2289C236.113 25.3863 235.524 25.4831 234.921 25.4831C233.73 25.4831 232.807 24.9264 232.807 23.5711V20.6668H231.706V19.5294H232.807V17.7747L234.166 17.46Z" fill="#0CEA8C"/>
<path d="M238.227 25.3378V20.6668H237.112V19.5293H238.227V18.8879C238.227 17.2059 239.392 16.7097 240.52 16.7097C241.084 16.7097 241.622 16.8187 242.045 16.9639V18.1014C241.737 17.9561 241.289 17.8473 240.853 17.8473C240.187 17.8473 239.597 18.0287 239.597 18.9364V19.5294H241.699V20.6669H239.597V25.3379H238.227V25.3378Z" fill="#0CEA8C"/>
<path d="M245.504 19.3719C247.234 19.3719 248.835 20.4248 248.835 22.4335C248.835 24.4423 247.234 25.4951 245.504 25.4951C243.787 25.4951 242.173 24.4423 242.173 22.4335C242.173 20.4248 243.787 19.3719 245.504 19.3719ZM245.504 20.5579C244.351 20.5579 243.557 21.2961 243.557 22.4336C243.557 23.5711 244.351 24.3093 245.504 24.3093C246.644 24.3093 247.439 23.5711 247.439 22.4336C247.439 21.2961 246.644 20.5579 245.504 20.5579Z" fill="#0CEA8C"/>
<path d="M253.972 19.4083V20.6789C252.871 20.5337 251.91 20.9935 251.538 21.8164V25.3378H250.167V19.5293H251.384V20.4853C251.858 19.7713 252.858 19.3114 253.972 19.4083Z" fill="#0CEA8C"/>
<path d="M255.01 25.3378V19.5293H256.227V20.2554C256.56 19.9045 257.278 19.372 258.277 19.372C259.2 19.372 259.84 19.735 260.199 20.3038C260.737 19.7955 261.455 19.372 262.351 19.372C263.978 19.372 264.683 20.5095 264.683 21.7075V25.3379H263.312V21.7438C263.312 20.9936 262.838 20.5217 262.095 20.5217C261.416 20.5217 260.891 20.9452 260.57 21.3082C260.583 21.4413 260.596 21.5745 260.596 21.7075V25.3379H259.225V21.7438C259.225 20.9936 258.751 20.5217 258.008 20.5217C257.265 20.5217 256.701 21.0299 256.381 21.4171V25.3379H255.01V25.3378Z" fill="#0CEA8C"/>
<path d="M59.9501 3.16111L50.9062 12.0873H55.228V17.8255C55.228 22.6004 58.0387 25.7657 63.2543 25.7657V21.3674C60.9212 21.3674 59.9501 20.0599 59.9501 17.6517V12.0873H64.272V8.14859H59.9501V3.16111H59.9501ZM89.672 15.6287L89.6719 25.3472H94.3941L94.3942 15.8024C94.3942 13.3943 95.3652 12.0869 97.6983 12.0869V7.6885C92.4827 7.6885 89.672 10.8539 89.672 15.6287ZM40.0239 7.69076C34.6549 7.69076 30.3025 11.7284 30.3025 16.7091C30.3025 21.6897 34.6549 25.7273 40.0239 25.7273C44.2385 25.7273 47.0674 24.0615 48.7686 21.9926L45.7247 19.4967C44.3005 20.9606 42.4855 21.835 40.1018 21.835C37.523 21.835 35.6543 20.037 35.0591 18.2348H49.6028C49.677 17.9759 49.7451 17.1767 49.7451 16.7091C49.7451 11.7284 45.3927 7.69076 40.0239 7.69076ZM35.2078 14.7523C35.9821 12.6512 37.9648 11.5062 40.0231 11.5062C42.542 11.5062 44.4455 13.197 44.8756 14.7523H35.2078ZM101.25 25.3472H105.972V8.35784H101.25V25.3472ZM14.5299 12.8629V16.8144H22.5109C21.2609 19.7104 18.5577 21.4603 15.3595 21.4569C13.1872 21.4569 11.1615 20.6547 9.65577 19.1984C8.15794 17.7497 7.33305 15.8123 7.33305 13.7431C7.33305 11.671 8.15802 9.72565 9.65607 8.26552C11.1646 6.79513 13.1901 5.98538 15.3595 5.98538C18.1817 5.98538 20.6369 7.32971 22.1063 9.675H27.1431C25.4231 5.00621 20.8758 1.72348 15.3593 1.72348C8.33118 1.72355 2.63367 7.1049 2.63367 13.7432C2.63367 20.3813 8.33118 25.7627 15.3594 25.7627C22.3877 25.7627 27.8192 20.3813 27.8192 13.7432C27.8192 13.3354 27.8001 12.8629 27.8001 12.8629H14.5299ZM167.789 20.445C166.234 20.445 164.973 21.636 164.973 23.1053C164.973 24.5745 166.234 25.7657 167.789 25.7657C169.345 25.7657 170.606 24.5745 170.606 23.1053C170.606 21.636 169.345 20.445 167.789 20.445ZM173.922 15.3987L173.922 25.1171H178.645L178.645 15.5725C178.645 13.1644 179.616 11.8568 181.949 11.8568V7.45846C176.733 7.45846 173.922 10.6238 173.922 15.3987ZM103.611 1.21741C102.055 1.21741 100.794 2.40852 100.794 3.87777C100.794 5.3471 102.055 6.53814 103.611 6.53814C105.167 6.53814 106.428 5.34703 106.428 3.87777C106.428 2.40852 105.167 1.21741 103.611 1.21741ZM197.686 7.91855V17.5922C197.686 19.539 196.015 21.117 193.954 21.117C191.893 21.117 190.223 19.5389 190.222 17.5922V7.91855H185.5L185.5 17.5923C185.5 22.0023 189.285 25.5772 193.954 25.5772C198.623 25.5772 202.408 22.0023 202.408 17.5923L202.409 7.91855H197.686ZM163.176 20.3798C163.176 16.2551 159.028 15.345 156.77 14.8379C154.414 14.3089 154.105 13.3999 154.105 12.7632C154.105 12.0142 154.883 11.3027 156.199 11.3027C158.392 11.3027 158.641 13.1593 158.641 13.1593H163.027C162.535 9.49016 159.331 7.68843 156.03 7.68843C152.955 7.68843 149.442 9.32541 149.442 12.8455C149.442 15.5362 151.422 17.1345 153.661 17.8261C155.808 18.4891 158.478 18.4672 158.478 20.3914C158.478 21.4451 157.738 22.0669 156.422 22.0669C154.229 22.0669 153.978 20.0523 153.978 20.0523H149.592C150.085 23.883 153.288 25.7641 156.59 25.7641C159.649 25.7641 163.142 24.0712 163.176 20.4328H163.177C163.177 20.424 163.176 20.4154 163.176 20.4067C163.176 20.3977 163.177 20.3889 163.177 20.3798H163.176ZM145.941 8.14859H141.219C141.219 11.298 140.516 13.6965 137.655 13.888H135.836V2.17564H131.114V25.3472H135.836V17.8017H137.74L142.071 25.3472H147.452L142.332 16.7479C144.903 15.1319 145.941 12.2576 145.941 8.14859ZM118.534 7.6885C113.865 7.6885 110.08 11.2635 110.08 15.6734V25.3472H114.802V15.6735C114.802 13.7267 116.473 12.1487 118.534 12.1487C120.595 12.1487 122.266 13.7268 122.266 15.6735V25.3472H126.988V15.6734C126.988 11.2635 123.203 7.6885 118.534 7.6885ZM73.7617 2.139H67.8818V25.3472H73.7617C81.5394 25.3472 86.4874 21.1187 86.4874 13.7431C86.4874 6.36751 81.5394 2.139 73.7617 2.139ZM73.6868 21.2542H72.604V6.23205H73.6868C79.094 6.23205 81.7132 9.94685 81.7132 13.7431C81.7131 17.5393 79.094 21.2542 73.6868 21.2542Z" fill="#0E0E0E"/>
</svg>
