<svg width="81" height="80" viewBox="0 0 81 80" fill="none" xmlns="http://www.w3.org/2000/svg">
<path d="M54.0638 51.4399C52.1458 51.4399 50.5855 50.0894 50.5855 48.4295C50.5855 46.7694 52.1458 45.4189 54.0638 45.4189C55.9817 45.4189 57.542 46.7694 57.542 48.4295C57.542 49.3025 58.25 50.0105 59.123 50.0105C59.9961 50.0105 60.7041 49.3025 60.7041 48.4295C60.7041 45.5323 58.5453 43.0962 55.6448 42.4351V41.6128C55.6448 40.7397 54.9368 40.0317 54.0638 40.0317C53.1907 40.0317 52.4827 40.7397 52.4827 41.6128V42.4351C49.5822 43.0962 47.4235 45.5323 47.4235 48.4295C47.4235 51.833 50.4023 54.602 54.0638 54.602C55.9817 54.602 57.542 55.9525 57.542 57.6126C57.542 59.2726 55.9817 60.6232 54.0638 60.6232C52.1458 60.6232 50.5855 59.2726 50.5855 57.6126C50.5855 56.7395 49.8775 56.0315 49.0045 56.0315C48.1314 56.0315 47.4235 56.7395 47.4235 57.6126C47.4235 60.5098 49.5822 62.9458 52.4827 63.607V64.29C52.4827 65.1631 53.1907 65.8711 54.0638 65.8711C54.9368 65.8711 55.6448 65.1631 55.6448 64.29V63.607C58.5453 62.9458 60.7041 60.5098 60.7041 57.6126C60.7041 54.2089 57.7253 51.4399 54.0638 51.4399Z" fill="#04F18C"/>
<path d="M71.3804 42.0357C69.3151 38.8175 66.4054 36.2424 62.9659 34.5889C62.1787 34.2104 61.234 34.5418 60.8558 35.3288C60.4775 36.1159 60.8087 37.0604 61.5957 37.4387C67.5896 40.32 71.4623 46.4763 71.4623 53.1227C71.4623 55.9666 70.7613 58.787 69.4353 61.2793C69.0251 62.0501 69.3175 63.0075 70.0884 63.4176C70.3249 63.5435 70.5791 63.6033 70.8296 63.6033C71.3953 63.6033 71.9424 63.2988 72.2267 62.7645C73.7952 59.8169 74.6243 56.4826 74.6243 53.1227C74.6243 49.1764 73.5026 45.3426 71.3804 42.0357Z" fill="#04F18C"/>
<path d="M56.549 32.5695L56.4426 32.5693C55.5696 32.5693 54.8616 33.2772 54.8616 34.1504C54.8616 35.0236 55.5696 35.7314 56.4426 35.7314L56.5341 35.7315C56.5367 35.7315 56.539 35.7315 56.5417 35.7315C57.4115 35.7315 58.1185 35.0286 58.1226 34.1579C58.1265 33.2847 57.422 32.5736 56.549 32.5695Z" fill="#04F18C"/>
<path d="M46.5465 68.8066C40.5528 65.9252 36.6801 59.7688 36.6801 53.1227C36.6801 50.2787 37.3811 47.4583 38.7071 44.966C39.1173 44.1953 38.8249 43.2378 38.054 42.8277C37.2834 42.4176 36.3257 42.7099 35.9157 43.4808C34.3472 46.4286 33.5181 49.7627 33.5181 53.1227C33.5181 57.0689 34.6398 60.9026 36.762 64.2096C38.8273 67.4278 41.737 70.003 45.1765 71.6565C45.3974 71.7628 45.6308 71.8129 45.8605 71.8129C46.4493 71.8129 47.0143 71.4826 47.2866 70.9166C47.6646 70.1296 47.3335 69.1849 46.5465 68.8066Z" fill="#04F18C"/>
<path d="M51.6998 70.5137L51.6083 70.5134C50.7311 70.5118 50.0241 71.2137 50.0202 72.087C50.016 72.9602 50.7209 73.6714 51.5939 73.6755L51.6998 73.6758C52.5729 73.6758 53.2809 72.9678 53.2809 72.0948C53.2809 71.2217 52.5729 70.5137 51.6998 70.5137Z" fill="#04F18C"/>
<path d="M61.2503 27.2202C61.0579 26.7617 60.8222 26.3296 60.5479 25.9288H64.6639C68.674 25.9288 71.9366 22.6662 71.9366 18.6561C71.9366 14.646 68.674 11.3834 64.6639 11.3834H52.0031C52.808 10.2131 53.2805 8.79729 53.2805 7.27271C53.2805 3.2626 50.0179 0 46.0078 0H7.27271C3.2626 0 0 3.2626 0 7.27271C0 11.2828 3.2626 14.5454 7.27271 14.5454H19.9336C19.1287 15.7157 18.6561 17.1315 18.6561 18.6561C18.6561 20.1807 19.1285 21.5965 19.9336 22.7668H15.8102C11.8001 22.7668 8.53753 26.0294 8.53753 30.0395C8.53753 32.3425 9.61484 34.3977 11.2909 35.7312C9.61484 37.0646 8.53753 39.1198 8.53753 41.4228C8.53753 43.7259 9.61484 45.7811 11.2909 47.1145C9.61484 48.448 8.53753 50.5031 8.53753 52.8062C8.53753 55.1093 9.61484 57.1645 11.2909 58.4979C9.61484 59.8313 8.53753 61.8865 8.53753 64.1896C8.53753 68.1997 11.8001 71.4623 15.8102 71.4623H34.4426C39.3511 76.7124 46.3338 80 54.0712 80C68.8914 80 80.9486 67.9428 80.9486 53.1226C80.9486 40.7879 72.5961 30.3688 61.2503 27.2202ZM64.6639 14.5454C66.9306 14.5454 68.7746 16.3895 68.7746 18.6561C68.7746 20.9226 66.9306 22.7668 64.6639 22.7668H54.5453H25.9288C23.6621 22.7668 21.8181 20.9226 21.8181 18.6561C21.8181 16.3895 23.6621 14.5454 25.9288 14.5454H64.6639ZM7.27271 11.3834C5.006 11.3834 3.16205 9.53927 3.16205 7.27271C3.16205 5.00616 5.006 3.16205 7.27271 3.16205H46.0078C48.2745 3.16205 50.1185 5.00616 50.1185 7.27271C50.1185 9.53927 48.2745 11.3834 46.0078 11.3834H7.27271ZM15.8102 25.9288H54.5453C55.1822 25.9288 55.792 26.0768 56.339 26.3418C55.5912 26.279 54.8351 26.2452 54.0712 26.2452C46.6491 26.2452 39.9202 29.2695 35.0516 34.1501H15.8102C13.5437 34.1501 11.6996 32.306 11.6996 30.0395C11.6996 27.7729 13.5437 25.9288 15.8102 25.9288ZM15.8102 37.3122H32.3501C30.5554 39.7711 29.1677 42.5446 28.2864 45.5335H15.8102C13.5435 45.5335 11.6996 43.6896 11.6996 41.4228C11.6996 39.1563 13.5435 37.3122 15.8102 37.3122ZM15.8102 48.6956H27.5604C27.3206 50.1363 27.1938 51.6148 27.1938 53.1226C27.1938 54.4105 27.2869 55.6769 27.4629 56.9169H15.8102C13.5435 56.9169 11.6996 55.0729 11.6996 52.8062C11.6996 50.5395 13.5435 48.6956 15.8102 48.6956ZM15.8102 68.3003C13.5435 68.3003 11.6996 66.4563 11.6996 64.1896C11.6996 61.9229 13.5435 60.0789 15.8102 60.0789H28.1084C28.9062 63.0533 30.2022 65.8253 31.9018 68.3003H15.8102ZM54.0712 76.838C40.9945 76.838 30.3558 66.1992 30.3558 53.1226C30.3558 40.0459 40.9945 29.4072 54.0712 29.4072C67.1479 29.4072 77.7866 40.0459 77.7866 53.1226C77.7866 66.1992 67.1479 76.838 54.0712 76.838Z" fill="#04F18C"/>
</svg>
