<svg width="24" height="24" viewBox="0 0 24 24" fill="none" xmlns="http://www.w3.org/2000/svg">
<path d="M6.00724 15.3632L6.00757 15.3636C7.96967 17.7002 10.3325 19.5408 13.0294 20.8431L13.031 20.8439C14.0527 21.3262 15.4413 21.9098 16.996 22.01L16.996 22.0101L17.0003 22.0103L17.0127 22.0108C17.1016 22.0147 17.192 22.0186 17.2867 22.0186C18.3559 22.0186 19.226 21.6479 19.9308 20.887C19.9343 20.8834 19.9402 20.8773 19.9463 20.8701C19.9507 20.865 19.9576 20.8568 19.965 20.8458C20.1763 20.5933 20.4148 20.3628 20.6741 20.1123C20.6925 20.0945 20.711 20.0765 20.7297 20.0585C20.9225 19.8746 21.1206 19.6813 21.3112 19.4833C21.7759 19.0007 22.0197 18.4399 22.0186 17.8705C22.0175 17.3005 21.7709 16.7459 21.3 16.2768L18.8467 13.8328C18.3985 13.3694 17.8507 13.1138 17.2662 13.1138C16.6815 13.1138 16.1304 13.3695 15.6708 13.8274L14.3152 15.1779C14.2197 15.127 14.1253 15.08 14.0373 15.0362L14.0351 15.035C13.8714 14.9535 13.7288 14.8803 13.6037 14.801L13.6036 14.8009C12.2934 13.9721 11.1004 12.8892 9.95621 11.4918C9.42058 10.8162 9.05388 10.248 8.79258 9.68247C9.141 9.36233 9.469 9.03142 9.78395 8.71028L9.78462 8.70959C9.90581 8.58484 10.0312 8.45987 10.1581 8.33353C10.6282 7.86514 10.895 7.30792 10.895 6.72675C10.895 6.14643 10.633 5.58892 10.1577 5.11963C10.1576 5.11953 10.1575 5.11943 10.1574 5.11933L8.94094 3.90745C8.8029 3.76993 8.67244 3.63614 8.53727 3.49751L8.52645 3.48642C8.25723 3.21008 7.97301 2.92275 7.69177 2.66306C7.23923 2.22185 6.69716 1.98141 6.11612 1.98141C5.53794 1.98141 4.99204 2.22279 4.5241 2.66718L4.52406 2.66713L4.52066 2.67052L2.99314 4.19227C2.40439 4.7788 2.06894 5.49439 1.99957 6.31935L1.9995 6.3202C1.91889 7.33033 2.10684 8.3939 2.57911 9.66099C3.30326 11.619 4.39455 13.4329 6.00724 15.3632ZM6.70862 3.67343L6.70846 3.67359L6.71545 3.68004C6.94897 3.89531 7.17032 4.11953 7.40723 4.35951C7.44343 4.39618 7.47999 4.43321 7.51701 4.47064C7.58688 4.54228 7.65767 4.61383 7.72838 4.68528L7.72963 4.68655C7.80026 4.75792 7.87083 4.82923 7.94132 4.90146L7.9413 4.90148L7.9433 4.90347L9.16042 6.11599C9.39258 6.34727 9.48538 6.55556 9.48538 6.73489C9.48538 6.91422 9.39258 7.12251 9.16042 7.35379C9.09654 7.41743 9.03275 7.482 8.96963 7.5459L8.96937 7.54616C8.90597 7.61034 8.84323 7.67385 8.78058 7.73626L8.77982 7.73702C8.7514 7.76564 8.72314 7.79412 8.69503 7.82244C8.34599 8.17419 8.01946 8.50326 7.66219 8.8184L7.66194 8.81812L7.65331 8.82672L7.6329 8.84706L7.77434 8.98904L7.6329 8.84706C7.43482 9.04439 7.34047 9.24944 7.31557 9.45124C7.29131 9.64789 7.3355 9.82273 7.38007 9.95592L7.38007 9.95593C7.38422 9.96831 7.38833 9.97844 7.39027 9.98328C7.39241 9.98861 7.39238 9.98866 7.39232 9.98848L7.39464 9.9954L7.39746 10.0021C7.72078 10.776 8.16869 11.508 8.85934 12.3732L8.85933 12.3732L8.86053 12.3747C10.0973 13.8944 11.4035 15.0772 12.8452 15.9895C13.001 16.0905 13.1668 16.1739 13.3155 16.2488C13.3448 16.2636 13.3735 16.278 13.4013 16.2922L13.403 16.293C13.5666 16.3745 13.7093 16.4477 13.8343 16.527L13.843 16.5326L13.8523 16.5372C13.8548 16.5384 13.8574 16.5398 13.8649 16.5441L13.8658 16.5447C13.8725 16.5484 13.8833 16.5546 13.8961 16.561C14.0557 16.6428 14.2172 16.6843 14.3827 16.6843C14.7962 16.6843 15.0595 16.4222 15.1327 16.3492L16.6603 14.8274C16.8729 14.6156 17.0823 14.5237 17.2662 14.5237C17.4941 14.5237 17.6977 14.6667 17.8426 14.8221L17.8424 14.8222L17.8478 14.8276L20.3105 17.2769C20.5303 17.4959 20.6176 17.7014 20.6161 17.8896C20.6146 18.0795 20.5225 18.2943 20.2955 18.5298L20.2935 18.5319C20.1259 18.7107 19.9495 18.8825 19.7582 19.065L19.7572 19.066C19.741 19.0816 19.7248 19.0973 19.7085 19.113C19.4397 19.373 19.1537 19.6496 18.8928 19.9601C18.4639 20.4191 17.9595 20.6331 17.2907 20.6331C17.2282 20.6331 17.1604 20.6294 17.0907 20.6253C15.7915 20.5424 14.575 20.0362 13.6441 19.5948C11.13 18.3826 8.92279 16.6632 7.09076 14.4795C5.57888 12.6664 4.56683 10.9851 3.89831 9.18772L3.89806 9.18706C3.4839 8.08548 3.33353 7.2172 3.39554 6.43862C3.44052 5.94433 3.6285 5.537 3.9867 5.18015L5.50477 3.66781C5.71413 3.46689 5.92767 3.37911 6.11612 3.37911C6.29817 3.37911 6.50283 3.46483 6.70862 3.67343Z" fill="black" stroke="black" stroke-width="0.400826"/>
</svg>
